<svg width="40" height="40" viewBox="0 0 40 40" fill="none" xmlns="http://www.w3.org/2000/svg">
<path fill-rule="evenodd" clip-rule="evenodd" d="M36 2H4C2.895 2 2 2.8954 2 4V25.2667L14.655 22.3139C15.549 22.1053 16.464 22 17.381 22H22.619C23.536 22 24.451 22.1053 25.345 22.3139L38 25.2667V4C38 2.8954 37.105 2 36 2ZM4 0C1.791 0 0 1.7909 0 4V36C0 38.2091 1.791 40 4 40H36C38.209 40 40 38.2091 40 36V4C40 1.7909 38.209 0 36 0H4ZM10.909 14.5455C12.917 14.5455 14.545 12.9174 14.545 10.9091C14.545 8.9008 12.917 7.2727 10.909 7.2727C8.901 7.2727 7.27299 8.9008 7.27299 10.9091C7.27299 12.9174 8.901 14.5455 10.909 14.5455Z" fill="#CDCDCD"/>
</svg>
